<svg xmlns="http://www.w3.org/2000/svg" width="512" height="512" viewBox="0 0 155.724 155.723"><path d="M42.735 121.52c-12.77-10.272-20.942-26.024-20.942-43.69 0-26.114 17.882-47.992 42.05-54.23V9.154C31.854 15.646 7.777 43.927 7.777 77.83c0 20.95 9.2 39.738 23.767 52.578 11.276 10.503 18.284-3.514 11.192-8.887zm80.854-96.774c-7.18-6.485-17.694 4.028-10.802 9.236 12.888 10.27 21.143 26.097 21.143 43.848 0 26.118-17.884 48-42.05 54.234v14.45c31.99-6.5 56.067-34.777 56.067-68.685 0-21.228-9.445-40.234-24.358-53.084zm-53.553 10.96l22.813-13.66c3.32-1.988 3.326-5.226.018-7.228L69.844.883c-3.312-2-5.985-.49-5.97 3.38L64 32.3c.01 3.868 2.714 5.395 6.037 3.407zm15.846 84.323l-23.027 13.934c-3.31 2.002-3.304 5.24.02 7.228l22.81 13.662c3.32 1.984 6.03.462 6.047-3.412l.12-28.034c.012-3.868-2.665-5.378-5.97-3.38z" fill="#cb202d"/></svg>